<svg preserveAspectRatio="none" width="100%" height="100%" overflow="visible" style="display: block;" viewBox="0 0 15.305 22.305" fill="none" xmlns="http://www.w3.org/2000/svg">
<path id="Vector" d="M1.70925 22.305C1.23508 22.305 0.831666 22.1393 0.499 21.8078C0.166333 21.4763 0 21.0742 0 20.6017V1.70925C0 1.24758 0.1695 0.847332 0.5085 0.508499C0.847333 0.169499 1.24758 0 1.70925 0H12.5397C13.0139 0 13.4173 0.166332 13.75 0.498999C14.0827 0.831666 14.249 1.23508 14.249 1.70925V5.3255C14.549 5.393 14.8 5.548 15.002 5.7905C15.204 6.033 15.305 6.3055 15.305 6.608V8.4505C15.305 8.77517 15.204 9.06017 15.002 9.3055C14.8 9.55083 14.549 9.70658 14.249 9.77275V20.6017C14.249 21.0742 14.0827 21.4763 13.75 21.8078C13.4173 22.1393 13.0139 22.305 12.5397 22.305H1.70925ZM1.70325 20.6077H12.5457V1.70325H1.70325V20.6077ZM4.46525 18.518H9.78975C10.0292 18.518 10.2301 18.4357 10.3923 18.2712C10.5543 18.1067 10.6352 17.9022 10.6352 17.6575C10.6352 17.4128 10.5548 17.2112 10.394 17.0527C10.233 16.8941 10.0316 16.8147 9.78975 16.8147H4.46525C4.22392 16.8147 4.02167 16.897 3.8585 17.0615C3.69533 17.226 3.61375 17.4294 3.61375 17.6718C3.61375 17.9139 3.69558 18.1155 3.85925 18.2765C4.02292 18.4375 4.22492 18.518 4.46525 18.518Z" fill="var(--fill-0, #FF9500)"/>
</svg>
