<svg preserveAspectRatio="none" width="100%" height="100%" overflow="visible" style="display: block;" viewBox="0 0 20.305 20.305" fill="none" xmlns="http://www.w3.org/2000/svg">
<path id="Vector" d="M11.0013 10.3827L13.5045 12.886C13.6743 13.0578 13.7593 13.2588 13.7593 13.489C13.7593 13.7193 13.6776 13.9174 13.5143 14.0832C13.3378 14.2546 13.1317 14.3402 12.896 14.3402C12.6603 14.3402 12.457 14.2553 12.286 14.0855L9.54675 11.3522C9.45542 11.2597 9.39108 11.1643 9.35375 11.066C9.31642 10.9677 9.29775 10.8662 9.29775 10.7615V6.94725C9.29775 6.70742 9.38008 6.5045 9.54475 6.3385C9.70925 6.17267 9.91233 6.08975 10.154 6.08975C10.3955 6.08975 10.5971 6.17267 10.7588 6.3385C10.9204 6.5045 11.0013 6.70742 11.0013 6.94725V10.3827ZM10.145 3.9295C9.9035 3.9295 9.70192 3.84767 9.54025 3.684C9.37858 3.52033 9.29775 3.319 9.29775 3.08V1.47625H11.0013V3.08C11.0013 3.319 10.9189 3.52033 10.7543 3.684C10.5898 3.84767 10.3867 3.9295 10.145 3.9295ZM16.3755 10.151C16.3755 9.9095 16.4573 9.70792 16.621 9.54625C16.7847 9.38458 16.986 9.30375 17.225 9.30375H18.8287V11.0072H17.225C16.986 11.0072 16.7847 10.9249 16.621 10.7602C16.4573 10.5957 16.3755 10.3927 16.3755 10.151ZM10.154 16.3755C10.3955 16.3755 10.5971 16.4582 10.7588 16.6237C10.9204 16.7891 11.0013 16.9912 11.0013 17.2302V18.8347H9.29775V17.231C9.29775 16.992 9.38008 16.7897 9.54475 16.624C9.70925 16.4583 9.91233 16.3755 10.154 16.3755ZM3.9295 10.16C3.9295 10.4015 3.84675 10.6031 3.68125 10.7647C3.51592 10.9264 3.31375 11.0072 3.07475 11.0072H1.47025V9.30375H3.074C3.313 9.30375 3.51533 9.38608 3.681 9.55075C3.84667 9.71525 3.9295 9.91833 3.9295 10.16ZM10.157 20.305C8.75367 20.305 7.43667 20.0393 6.206 19.508C4.97533 18.9767 3.899 18.25 2.977 17.328C2.055 16.406 1.32833 15.3293 0.797 14.098C0.265667 12.8667 0 11.5486 0 10.1437C0 8.73908 0.265667 7.42075 0.797 6.18875C1.32833 4.95692 2.05467 3.88408 2.976 2.97025C3.89733 2.05625 4.97383 1.33275 6.2055 0.79975C7.43717 0.266583 8.75558 0 10.1608 0C11.5658 0 12.8845 0.266416 14.117 0.799249C15.3493 1.33208 16.4223 2.05517 17.3358 2.9685C18.2494 3.88183 18.9727 4.95583 19.5055 6.1905C20.0385 7.42517 20.305 8.74458 20.305 10.1487C20.305 11.5527 20.0384 12.87 19.5052 14.1005C18.9722 15.3312 18.2487 16.4057 17.3347 17.3242C16.4209 18.2426 15.347 18.969 14.113 19.5035C12.879 20.0378 11.5603 20.305 10.157 20.305ZM18.5957 10.143C18.5957 7.80067 17.7772 5.80942 16.1402 4.16925C14.5034 2.52925 12.5055 1.70925 10.1465 1.70925C7.8105 1.70925 5.81925 2.52775 4.17275 4.16475C2.52642 5.80158 1.70325 7.7995 1.70325 10.1585C1.70325 12.4945 2.52617 14.4857 4.172 16.1322C5.818 17.7786 7.81467 18.6017 10.162 18.6017C12.5043 18.6017 14.4956 17.7788 16.1358 16.133C17.7758 14.487 18.5957 12.4903 18.5957 10.143Z" fill="var(--fill-0, #FF9500)"/>
</svg>
