<svg preserveAspectRatio="none" width="100%" height="100%" overflow="visible" style="display: block;" viewBox="0 0 18.4125 18.7945" fill="none" xmlns="http://www.w3.org/2000/svg">
<path id="Vector" d="M0 17.0913V6.14125C0 5.66708 0.16575 5.26367 0.49725 4.931C0.82875 4.59833 1.23075 4.432 1.70325 4.432H6.175V2.97225C6.175 2.74092 6.2165 2.52033 6.2995 2.3105C6.3825 2.1005 6.50892 1.92092 6.67875 1.77175L8.00975 0.48475C8.33475 0.161584 8.732 0 9.2015 0C9.67117 0 10.0696 0.161584 10.3968 0.48475L11.7218 1.75975C11.8916 1.91692 12.02 2.10192 12.107 2.31475C12.194 2.52775 12.2375 2.75092 12.2375 2.98425V8.582H16.7033C17.1774 8.582 17.5808 8.74833 17.9135 9.081C18.2462 9.41367 18.4125 9.81708 18.4125 10.2913V17.0913C18.4125 17.5638 18.2462 17.9658 17.9135 18.2973C17.5808 18.6288 17.1774 18.7945 16.7033 18.7945H1.70325C1.23075 18.7945 0.82875 18.6288 0.49725 18.2973C0.16575 17.9658 0 17.5638 0 17.0913ZM1.70325 17.0913H4.35325V14.4413H1.70325V17.0913ZM1.70325 12.9413H4.35325V10.2913H1.70325V12.9413ZM1.70325 8.79125H4.35325V6.14125H1.70325V8.79125ZM7.87825 17.0913H10.5283V14.4413H7.87825V17.0913ZM7.87825 12.9413H10.5283V10.2913H7.87825V12.9413ZM7.87825 8.79125H10.5283V6.14125H7.87825V8.79125ZM7.87825 4.64125H10.5283V1.99125H7.87825V4.64125ZM14.0533 17.0913H16.7033V14.4413H14.0533V17.0913ZM14.0533 12.9413H16.7033V10.2913H14.0533V12.9413Z" fill="var(--fill-0, #FF9500)"/>
</svg>
