<svg width="50" height="50" viewBox="0 0 50 50" fill="none" xmlns="http://www.w3.org/2000/svg">
<g clip-path="url(#clip0_449_872)">
<path d="M48.0645 17.519C46.9797 15.4815 45.3596 13.7785 43.3787 12.5935C41.3978 11.4084 39.1311 10.7863 36.8228 10.794H1.21656C0.975362 10.796 0.740113 10.8691 0.540208 11.0041C0.340304 11.139 0.184609 11.3299 0.0925812 11.5529C0.000553685 11.7758 -0.0237248 12.021 0.0227797 12.2576C0.0692843 12.4943 0.184509 12.712 0.354055 12.8836L8.11239 20.6878C8.45148 21.0287 8.85467 21.2993 9.29875 21.4838C9.74282 21.6683 10.219 21.7631 10.6999 21.7628H35.802C36.6606 21.7542 37.4875 22.0871 38.1007 22.6882C38.7139 23.2893 39.0632 24.1093 39.0718 24.968C39.0803 25.8266 38.7474 26.6535 38.1464 27.2667C37.5453 27.8799 36.7252 28.2292 35.8666 28.2378H18.5624C18.321 28.2394 18.0855 28.3121 17.8853 28.447C17.685 28.5818 17.529 28.7726 17.4367 28.9957C17.3445 29.2187 17.32 29.464 17.3664 29.7009C17.4129 29.9378 17.5281 30.1557 17.6978 30.3273L25.4582 38.1336C25.7973 38.4746 26.2005 38.7451 26.6446 38.9296C27.0887 39.1141 27.5648 39.2089 28.0457 39.2086H35.8728C46.0541 39.2086 53.7561 28.3232 48.0645 17.5148" fill="#FF3008"/>
</g>
<defs>
<clipPath id="clip0_449_872">
<rect width="50" height="50" fill="white"/>
</clipPath>
</defs>
</svg>
