<svg width="50" height="50" viewBox="0 0 50 50" fill="none" xmlns="http://www.w3.org/2000/svg">
<path d="M43.6396 17.3016C43.6186 15.7238 43.3232 14.1616 42.7667 12.685C42.2841 11.4394 41.547 10.3083 40.6025 9.36378C39.6579 8.41926 38.5268 7.68215 37.2813 7.19954C35.8236 6.65237 34.2837 6.35651 32.7271 6.32454C30.7229 6.23496 30.0875 6.20996 25 6.20996C19.9125 6.20996 19.2604 6.20996 17.2709 6.32454C15.7149 6.35674 14.1758 6.6526 12.7188 7.19954C11.4731 7.68181 10.3417 8.4188 9.39718 9.36336C8.45262 10.3079 7.71563 11.4392 7.23336 12.685C6.68509 14.1415 6.38986 15.681 6.36044 17.237C6.27086 19.2433 6.24377 19.8787 6.24377 24.9662C6.24377 30.0537 6.24377 30.7037 6.36044 32.6954C6.39169 34.2537 6.68544 35.7912 7.23336 37.2516C7.71644 38.497 8.45397 39.6278 9.39885 40.572C10.3437 41.5162 11.4752 42.2528 12.7209 42.735C14.1738 43.3041 15.7133 43.6212 17.2729 43.6725C19.2792 43.762 19.9146 43.7891 25.0021 43.7891C30.0896 43.7891 30.7417 43.7891 32.7313 43.6725C34.2878 43.6418 35.8279 43.3466 37.2854 42.7995C38.5306 42.3164 39.6615 41.5791 40.6059 40.6346C41.5504 39.6902 42.2877 38.5593 42.7709 37.3141C43.3188 35.8558 43.6125 34.3183 43.6438 32.7579C43.7334 30.7537 43.7604 30.1183 43.7604 25.0287C43.7563 19.9412 43.7563 19.2954 43.6396 17.3016ZM24.9875 34.587C19.6667 34.587 15.3563 30.2766 15.3563 24.9558C15.3563 19.635 19.6667 15.3245 24.9875 15.3245C27.5419 15.3245 29.9916 16.3393 31.7978 18.1455C33.6041 19.9517 34.6188 22.4014 34.6188 24.9558C34.6188 27.5102 33.6041 29.9599 31.7978 31.7661C29.9916 33.5723 27.5419 34.587 24.9875 34.587ZM35.0021 17.2141C34.7071 17.2144 34.4149 17.1565 34.1423 17.0437C33.8697 16.931 33.6221 16.7655 33.4135 16.557C33.2049 16.3484 33.0394 16.1007 32.9267 15.8281C32.8139 15.5555 32.756 15.2633 32.7563 14.9683C32.7563 14.6735 32.8143 14.3816 32.9272 14.1093C33.04 13.8369 33.2053 13.5894 33.4138 13.381C33.6222 13.1725 33.8697 13.0072 34.142 12.8944C34.4144 12.7816 34.7063 12.7235 35.0011 12.7235C35.2959 12.7235 35.5878 12.7816 35.8601 12.8944C36.1325 13.0072 36.3799 13.1725 36.5884 13.381C36.7968 13.5894 36.9622 13.8369 37.075 14.1093C37.1878 14.3816 37.2459 14.6735 37.2459 14.9683C37.2459 16.21 36.2417 17.2141 35.0021 17.2141Z" fill="black"/>
<path d="M24.9875 31.2127C28.4427 31.2127 31.2437 28.4117 31.2437 24.9564C31.2437 21.5012 28.4427 18.7002 24.9875 18.7002C21.5322 18.7002 18.7312 21.5012 18.7312 24.9564C18.7312 28.4117 21.5322 31.2127 24.9875 31.2127Z" fill="black"/>
</svg>
