<svg width="50" height="50" viewBox="0 0 50 50" fill="none" xmlns="http://www.w3.org/2000/svg">
<g clip-path="url(#clip0_449_870)">
<path d="M0 5.96888V16.3793C0 20.3022 2.775 22.9001 6.425 22.9001C7.25604 22.912 8.08097 22.7564 8.85054 22.4425C9.6201 22.1285 10.3185 21.6628 10.9042 21.073V22.621H13.4271V5.9668H10.8812V16.246C10.8812 18.8814 9.06875 20.6626 6.725 20.6668C4.35208 20.6626 2.56458 18.9293 2.56458 16.246V5.96888H0ZM15.3396 5.96888V22.621H17.7604V21.096C18.9317 22.2643 20.5185 22.9206 22.1729 22.921C23.0191 22.9427 23.8611 22.7947 24.6492 22.4859C25.4374 22.177 26.1557 21.7135 26.7619 21.1227C27.368 20.5319 27.8498 19.8257 28.1787 19.0457C28.5077 18.2658 28.6771 17.4279 28.6771 16.5814C28.6771 15.7349 28.5077 14.897 28.1787 14.117C27.8498 13.3371 27.368 12.6309 26.7619 12.04C26.1557 11.4492 25.4374 10.9857 24.6492 10.6769C23.8611 10.368 23.0191 10.2201 22.1729 10.2418C21.3571 10.2416 20.5492 10.4027 19.7959 10.7159C19.0425 11.0291 18.3586 11.4882 17.7833 12.0668V5.96888H15.3396ZM35.9333 10.2522C35.1038 10.2481 34.2816 10.4081 33.5141 10.7229C32.7466 11.0378 32.0489 11.5013 31.4613 12.0869C30.8736 12.6724 30.4076 13.3683 30.0899 14.1347C29.7723 14.901 29.6093 15.7226 29.6104 16.5522C29.6104 20.171 32.4708 22.8793 36.1792 22.8793C37.2091 22.9008 38.2294 22.6773 39.156 22.227C40.0825 21.7768 40.8888 21.1128 41.5083 20.2897L39.7375 19.0022C39.3342 19.5668 38.7994 20.0246 38.1794 20.3361C37.5594 20.6475 36.8729 20.8032 36.1792 20.7897C35.1954 20.8024 34.2398 20.4612 33.4865 19.8283C32.7331 19.1954 32.2322 18.313 32.075 17.3418H42.1104V16.5522C42.1104 12.9397 39.4979 10.2522 35.9354 10.2522H35.9333ZM48.7729 10.3897C48.198 10.3859 47.632 10.5309 47.1297 10.8105C46.6273 11.0901 46.2059 11.4949 45.9062 11.9855V10.4876H43.4833V22.621H45.9292V15.721C45.9292 13.8418 47.0937 12.6293 48.6937 12.6293H49.725V10.3939L48.7729 10.3897ZM35.85 12.3564C36.7484 12.3442 37.6226 12.6472 38.3207 13.2128C39.0187 13.7784 39.4965 14.5708 39.6708 15.4522H32.1333C32.3042 14.5884 32.7667 13.8095 33.4433 13.2459C34.1198 12.6823 34.9695 12.3683 35.85 12.3564ZM21.9771 12.3689C22.53 12.3686 23.0776 12.4772 23.5885 12.6886C24.0994 12.8999 24.5637 13.2098 24.9549 13.6006C25.3461 13.9914 25.6564 14.4554 25.8683 14.9661C26.0801 15.4768 26.1893 16.0243 26.1896 16.5772C26.1899 17.1301 26.0812 17.6777 25.8699 18.1886C25.6585 18.6996 25.3486 19.1639 24.9579 19.555C24.5671 19.9462 24.1031 20.2566 23.5923 20.4684C23.0816 20.6803 22.5342 20.7894 21.9812 20.7897C20.8722 20.7794 19.812 20.3317 19.0312 19.5439C18.2503 18.7557 17.8123 17.6909 17.8125 16.5814C17.8118 15.4721 18.249 14.4074 19.0292 13.6189C19.8087 12.8301 20.8681 12.3808 21.9771 12.3689ZM0 27.0564V43.6626H11.9208V40.8147H3.22083V36.7105H11.6875V33.971H3.21875V29.898H11.9187V27.0543L0 27.0564ZM30.3333 27.9105V31.421H27.9375V34.2085H30.3417V40.7564C30.3417 42.4085 31.5333 43.7168 33.675 43.7168H37.0979L37.0854 40.9293H34.7083C33.9833 40.9293 33.5167 40.6168 33.5167 39.9626V34.196H37.0833V31.421H33.5292V27.9085L30.3333 27.9105ZM19.2979 31.0918C18.4414 31.0895 17.5929 31.2574 16.8019 31.5859C16.0108 31.9143 15.2929 32.3966 14.6898 33.0049C14.0868 33.6132 13.6106 34.3352 13.289 35.1291C12.9674 35.9229 12.8067 36.7728 12.8164 37.6293C12.8261 38.4858 13.0058 39.3318 13.3453 40.1182C13.6847 40.9046 14.177 41.6157 14.7937 42.2102C15.4103 42.8047 16.1389 43.2708 16.9372 43.5813C17.7355 43.8917 18.5875 44.0405 19.4438 44.0189C20.8929 44.0324 22.3017 43.542 23.4292 42.6314V43.7397H26.5896V31.421H23.4458V32.5168C22.3197 31.5895 20.9046 31.0854 19.4458 31.0918H19.2979ZM43.8208 31.1064C40.5187 31.1064 38.1958 32.448 38.1958 35.0355C38.1958 36.8272 39.4729 37.996 42.2292 38.5668L45.2458 39.2501C46.4333 39.4793 46.75 39.7897 46.75 40.271C46.75 41.0439 45.8375 41.5272 44.4021 41.5272C42.5771 41.5272 41.5312 41.1314 41.125 39.7605H37.9313C38.3896 42.3251 40.3417 44.0314 44.2833 44.0314H44.2875C47.9375 44.0314 50 42.3251 50 39.9626C50 38.2835 48.7812 37.0293 46.2312 36.4897L43.5354 35.948C41.9708 35.6647 41.4771 35.3772 41.4771 34.8105C41.4771 34.0668 42.2292 33.6126 43.6229 33.6126C45.1271 33.6126 46.2312 34.0126 46.55 35.3772H49.7125C49.5333 32.8168 47.6479 31.1064 43.8208 31.1064ZM19.725 33.7105C21.8292 33.7314 23.5146 35.4543 23.4896 37.5585C23.4902 38.0557 23.3919 38.5481 23.2004 39.0069C23.009 39.4658 22.7282 39.882 22.3744 40.2314C22.0206 40.5808 21.6008 40.8563 21.1395 41.0419C20.6783 41.2275 20.1847 41.3195 19.6875 41.3126C18.6797 41.3077 17.7151 40.9025 17.006 40.1864C16.2969 39.4702 15.9013 38.5017 15.9062 37.4939C15.9112 36.4861 16.3163 35.5215 17.0325 34.8124C17.7487 34.1032 18.7172 33.7056 19.725 33.7105Z" fill="#40C165"/>
</g>
<defs>
<clipPath id="clip0_449_870">
<rect width="50" height="50" fill="white"/>
</clipPath>
</defs>
</svg>
