<svg width="50" height="50" viewBox="0 0 50 50" fill="none" xmlns="http://www.w3.org/2000/svg">
<path d="M39.2167 34.7399C38.9979 36.2524 35.9104 40.1753 34.4896 40.744C34.0063 40.9378 33.5375 40.8899 33.1625 40.6024C32.9208 40.4149 32.6729 40.0357 29.3438 34.6315L28.3542 33.0211C27.9729 32.444 28.0458 31.6836 28.5167 31.1045C28.9813 30.542 29.6604 30.3336 30.25 30.5586C30.2833 30.5753 32.7396 31.3857 32.7396 31.3857C38.3396 33.2253 38.5208 33.2961 38.7625 33.4732C39.1167 33.7628 39.2813 34.2149 39.2083 34.7399H39.2167ZM27.9958 26.519C27.6 25.917 27.6063 25.2065 28.0167 24.717L29.5708 22.594C32.9917 17.9378 33.1792 17.692 33.4104 17.5295C33.6112 17.3992 33.8435 17.3258 34.0827 17.317C34.3218 17.3082 34.5589 17.3643 34.7688 17.4795C36.125 18.1378 38.8646 22.2065 39.0292 23.769V23.8211C39.0586 24.0547 39.024 24.292 38.9289 24.5074C38.8339 24.7228 38.682 24.9083 38.4896 25.044C38.2333 25.2086 38 25.3045 31.6333 26.8482C30.6271 27.1045 30.0667 27.244 29.7375 27.3628L29.7813 27.3149C29.1521 27.5045 28.4479 27.2003 28.05 26.5711L27.9958 26.519ZM24.0896 24.1045C23.7854 24.2003 22.8583 24.4899 21.7167 22.642C21.7167 22.642 14.0208 10.5315 13.8417 10.1586C13.7313 9.73988 13.8646 9.26488 14.2375 8.88155C15.3833 7.69613 21.6 5.95446 23.2271 6.3503C23.7583 6.4878 24.1229 6.82321 24.25 7.29405C24.3438 7.81488 25.1 19.0565 25.2083 21.5732C25.3146 23.7274 24.3917 24.0128 24.0896 24.1045ZM25.1042 36.4232C25.0875 42.3128 25.0729 42.5107 24.9771 42.7899C24.8125 43.2295 24.4354 43.5232 23.9146 43.619C22.4146 43.8732 17.7229 42.1399 16.7458 40.9795C16.5677 40.7577 16.4545 40.4909 16.4188 40.2086C16.3917 40.0211 16.4188 39.8336 16.4875 39.669C16.6063 39.3649 16.7688 39.1295 20.9833 34.1899L22.2208 32.719C22.6438 32.1774 23.3938 32.0149 24.0938 32.294C24.7708 32.5524 25.1938 33.1378 25.1479 33.769V36.392L25.1042 36.4232ZM12.3333 32.6565C11.8708 32.644 11.4583 32.3649 11.2188 31.9107C11.0458 31.5732 10.9229 31.019 10.8438 30.344C10.6313 28.3149 10.8917 25.2524 11.4979 24.2795C11.7854 23.8336 12.2021 23.5982 12.6625 23.6149C12.9667 23.6149 13.2375 23.7107 19.2604 26.1899L21.0271 26.892C21.6563 27.1232 22.0458 27.7815 22.0104 28.5315C21.9646 29.2565 21.5438 29.8149 20.925 29.9815L18.4208 30.7774C12.8188 32.5774 12.6333 32.6274 12.3396 32.6045L12.3333 32.6565ZM35.7083 43.744H35.7L35.6938 43.7503L35.7083 43.744Z" fill="#FF0000"/>
</svg>
